<svg width="38" height="40" viewBox="0 0 38 40" fill="none" xmlns="http://www.w3.org/2000/svg"><path d="M19.2134 40H2.52302C1.58375 40 0.728082 39.4836 0.295331 38.6526C-0.147256 37.8215 -0.0882443 36.8281 0.44286 36.0511L11.4682 19.9951L0.44286 3.94394C-0.0882443 3.17187 -0.147256 2.17359 0.290413 1.34251C0.728082 0.516351 1.58375 0 2.52302 0H19.2282C21.8099 0 24.2245 1.26875 25.69 3.39808L37.1284 20.0049L25.6703 36.6118C24.2048 38.7313 21.7903 40 19.2134 40ZM4.18026 36.6068H19.2085C20.674 36.6068 22.0411 35.8889 22.8771 34.684L33.0074 20.0049L22.8967 5.32087C22.0657 4.11606 20.6936 3.39316 19.2282 3.39316H4.18026L13.5287 17.0002L17.0054 11.94C17.7922 10.7942 19.2085 10.3024 20.5363 10.7155C21.864 11.1286 22.7541 12.3334 22.7541 13.7251V26.2749C22.7541 27.6617 21.864 28.8714 20.5363 29.2845C19.2085 29.6976 17.7922 29.2058 17.0054 28.06L13.5287 22.9998L4.18026 36.6068ZM15.5892 20L19.361 25.4881V14.507L15.5892 20Z" fill="white"></path></svg>